<?xml version="1.0" encoding="utf-8"?>
<!-- Generator: Adobe Illustrator 28.0.0, SVG Export Plug-In . SVG Version: 6.00 Build 0)  -->
<svg version="1.1" id="Lager_1" xmlns="http://www.w3.org/2000/svg" xmlns:xlink="http://www.w3.org/1999/xlink" x="0px" y="0px"
	 viewBox="0 0 285.05 300.11" style="enable-background:new 0 0 285.05 300.11;" xml:space="preserve">
<style type="text/css">
	.st0{fill:#FFFFFF;stroke:#000000;stroke-miterlimit:10;}
	.st1{fill:#FCEE21;}
	.st2{fill:#29ABE2;}
</style>
<path class="st0" d="M-72.34,243.2"/>
<path class="st1" d="M3.02,83.14C114.13-0.07,217.61-0.25,238.42,0.66c2.33,0.1,4.41,1.47,5.42,3.58
	c5.6,11.67,11.23,24.96,16.33,39.82c5.6,16.31,9.54,31.57,12.36,45.25c0.5,2.41-0.44,4.88-2.42,6.35
	c-17.7,13.1-36.32,26.32-55.87,39.57c-17,11.52-33.72,22.39-50.1,32.64c-3.33,2.09-7.74,0.66-9.21-2.99l-11.19-27.84
	c-4.3-10.7-8.6-21.39-12.91-32.09c-1.61-4-6.67-5.24-9.94-2.44c-28.04,23.93-56.08,47.85-84.11,71.78
	c-2.86,2.44-7.19,1.85-9.31-1.25c-8.23-12.01-17.94-29.7-23.19-52.66C1.55,108.39,0.6,97.47,0.5,88.24
	C0.48,86.23,1.42,84.34,3.02,83.14z"/>
<path class="st2" d="M282.03,216.98c-111.11,83.21-214.59,83.39-235.4,82.48c-2.33-0.1-4.41-1.47-5.42-3.58
	c-5.6-11.67-11.23-24.96-16.33-39.82c-5.6-16.31-9.54-31.57-12.36-45.25c-0.5-2.41,0.44-4.88,2.42-6.35
	c17.7-13.1,36.32-26.32,55.87-39.57c17-11.52,33.72-22.39,50.1-32.64c3.33-2.09,7.74-0.66,9.21,2.99l11.19,27.84
	c4.3,10.7,8.6,21.39,12.91,32.09c1.61,4,6.67,5.24,9.94,2.44c28.04-23.93,56.08-47.85,84.11-71.78c2.86-2.44,7.19-1.85,9.31,1.25
	c8.23,12.01,17.94,29.7,23.19,52.66c2.74,11.99,3.69,22.91,3.79,32.14C284.57,213.88,283.63,215.78,282.03,216.98z"/>
</svg>
