<?xml version="1.0" encoding="utf-8"?>
<!-- Generator: Adobe Illustrator 28.0.0, SVG Export Plug-In . SVG Version: 6.00 Build 0)  -->
<svg version="1.1" id="Lager_1" xmlns="http://www.w3.org/2000/svg" xmlns:xlink="http://www.w3.org/1999/xlink" x="0px" y="0px"
	 viewBox="0 0 175 70" style="enable-background:new 0 0 175 70;" xml:space="preserve">
<style type="text/css">
	.st0{fill:#42210B;}
	.st1{fill:#FBB03B;}
	.st2{font-family:'MyriadPro-Regular';}
	.st3{font-size:21px;}
</style>
<g>
	<path class="st0" d="M82.04,43.53C69.58,26.9,69.56,11.41,69.69,8.29c0.02-0.35,0.22-0.66,0.54-0.81c1.75-0.84,3.74-1.68,5.96-2.44
		c2.44-0.84,4.72-1.43,6.77-1.85c0.36-0.07,0.73,0.07,0.95,0.36c1.96,2.65,3.94,5.44,5.92,8.36c1.72,2.54,3.35,5.05,4.89,7.5
		c0.31,0.5,0.1,1.16-0.45,1.38l-4.17,1.68c-1.6,0.64-3.2,1.29-4.8,1.93c-0.6,0.24-0.78,1-0.37,1.49c3.58,4.2,7.16,8.39,10.74,12.59
		c0.37,0.43,0.28,1.08-0.19,1.39c-1.8,1.23-4.45,2.69-7.88,3.47c-1.79,0.41-3.43,0.55-4.81,0.57C82.5,43.91,82.22,43.77,82.04,43.53
		z"/>
	<path class="st1" d="M102.07,1.76C114.53,18.4,114.55,33.88,114.42,37c-0.02,0.35-0.22,0.66-0.54,0.81
		c-1.75,0.84-3.74,1.68-5.96,2.44c-2.44,0.84-4.72,1.43-6.77,1.85c-0.36,0.07-0.73-0.07-0.95-0.36c-1.96-2.65-3.94-5.44-5.92-8.36
		c-1.72-2.54-3.35-5.05-4.89-7.5c-0.31-0.5-0.1-1.16,0.45-1.38L94,22.83c1.6-0.64,3.2-1.29,4.8-1.93c0.6-0.24,0.78-1,0.37-1.49
		c-3.58-4.2-7.16-8.39-10.74-12.59c-0.37-0.43-0.28-1.08,0.19-1.39c1.8-1.23,4.45-2.69,7.88-3.47c1.79-0.41,3.43-0.55,4.81-0.57
		C101.61,1.38,101.89,1.52,102.07,1.76z"/>
</g>
<text transform="matrix(1 0 0 1 6.7935 62.2738)" class="st2 st3">Mugguniversitetet</text>
</svg>
