<?xml version="1.0" encoding="utf-8"?>
<!-- Generator: Adobe Illustrator 28.0.0, SVG Export Plug-In . SVG Version: 6.00 Build 0)  -->
<svg version="1.1" id="Lager_1" xmlns="http://www.w3.org/2000/svg" xmlns:xlink="http://www.w3.org/1999/xlink" x="0px" y="0px"
	 viewBox="0 0 175 70" style="enable-background:new 0 0 175 70;" xml:space="preserve">
<style type="text/css">
	.st0{fill:#FCEE21;}
	.st1{fill:#29ABE2;}
	.st2{fill:none;}
	.st3{font-family:'MyriadPro-Regular';}
	.st4{font-size:24.2px;}
</style>
<path class="st0" d="M71.17,12.63C87.8,0.17,103.29,0.15,106.41,0.28c0.35,0.02,0.66,0.22,0.81,0.54c0.84,1.75,1.68,3.74,2.44,5.96
	c0.84,2.44,1.43,4.72,1.85,6.77c0.07,0.36-0.07,0.73-0.36,0.95c-2.65,1.96-5.44,3.94-8.36,5.92c-2.54,1.72-5.05,3.35-7.5,4.89
	c-0.5,0.31-1.16,0.1-1.38-0.45l-1.68-4.17c-0.64-1.6-1.29-3.2-1.93-4.8c-0.24-0.6-1-0.78-1.49-0.37c-4.2,3.58-8.39,7.16-12.59,10.74
	c-0.43,0.37-1.08,0.28-1.39-0.19c-1.23-1.8-2.69-4.45-3.47-7.88c-0.41-1.79-0.55-3.43-0.57-4.81
	C70.79,13.09,70.93,12.81,71.17,12.63z"/>
<path class="st1" d="M112.94,32.66C96.31,45.12,80.82,45.14,77.7,45.01c-0.35-0.02-0.66-0.22-0.81-0.54
	c-0.84-1.75-1.68-3.74-2.44-5.96c-0.84-2.44-1.43-4.72-1.85-6.77c-0.07-0.36,0.07-0.73,0.36-0.95c2.65-1.96,5.44-3.94,8.36-5.92
	c2.54-1.72,5.05-3.35,7.5-4.89c0.5-0.31,1.16-0.1,1.38,0.45l1.68,4.17c0.64,1.6,1.29,3.2,1.93,4.8c0.24,0.6,1,0.78,1.49,0.37
	c4.2-3.58,8.39-7.16,12.59-10.74c0.43-0.37,1.08-0.28,1.39,0.19c1.23,1.8,2.69,4.45,3.47,7.88c0.41,1.79,0.55,3.43,0.57,4.81
	C113.32,32.2,113.18,32.48,112.94,32.66z"/>
<path class="st2" d="M175.3,74.87H8.79c-6.44,0-11.66-5.22-11.66-11.66v0c0-6.44,5.22-11.66,11.66-11.66H175.3
	c3.12,0,6.12,1.25,8.31,3.48l0,0C190.86,62.41,185.64,74.87,175.3,74.87z"/>
<text transform="matrix(1 0 0 1 2.7014 68.7363)" class="st3 st4">Mittuniversitetet</text>
</svg>
